<svg xmlns="http://www.w3.org/2000/svg" xmlns:xlink="http://www.w3.org/1999/xlink" viewBox="0 0 342.83 70"><defs><style>.cls-1{fill:none;stroke-width:3px;}.cls-1,.cls-2,.cls-3{stroke:#4a9fb8;stroke-miterlimit:10;}.cls-2,.cls-3{stroke-linecap:round;stroke-width:4px;}.cls-2{fill:url(#Degradado_sin_nombre_12);}.cls-3{fill:#fff;}.cls-4{fill:#1a2742;}.cls-5{fill:#00c3ff;}.cls-6{fill:#6b7a99;}</style><linearGradient id="Degradado_sin_nombre_12" x1="10" y1="30.5" x2="44" y2="30.5" gradientUnits="userSpaceOnUse"><stop offset="0.02" stop-color="#2d5f6f"/><stop offset="0.18" stop-color="#0075be"/><stop offset="0.43" stop-color="#1e9cd7"/><stop offset="0.52" stop-color="#279dd0"/><stop offset="0.82" stop-color="#419ebf"/><stop offset="1" stop-color="#4a9fb8"/></linearGradient></defs><title>Logo</title><g id="Sobre_Cyan"><rect class="cls-1" x="1.5" y="1.5" width="85" height="67" rx="14.51"/><line class="cls-2" x1="10" y1="13" x2="44" y2="48"/><line class="cls-3" x1="78" y1="13" x2="44" y2="48"/><line class="cls-3" x1="55" y1="37" x2="78" y2="60"/><line class="cls-3" x1="33" y1="37" x2="10" y2="60"/></g><g id="MailPath"><path class="cls-4" d="M107.52,156.54,102,134.65v23.72a4.33,4.33,0,0,1-.87,2.95,3.21,3.21,0,0,1-4.63,0,4.23,4.23,0,0,1-.89-3V131.18q0-2.25,1.17-3a5.54,5.54,0,0,1,3.16-.79h2.16a8.32,8.32,0,0,1,2.82.35,2.38,2.38,0,0,1,1.3,1.27,20,20,0,0,1,1,3l5,18.82,5-18.82a20,20,0,0,1,1-3,2.38,2.38,0,0,1,1.3-1.27,8.36,8.36,0,0,1,2.82-.35h2.16a5.54,5.54,0,0,1,3.16.79c.79.52,1.18,1.53,1.18,3v27.19a4.33,4.33,0,0,1-.88,2.95,3,3,0,0,1-2.36,1,2.91,2.91,0,0,1-2.27-1,4.23,4.23,0,0,1-.89-2.95V134.65l-5.51,21.89c-.36,1.42-.65,2.46-.88,3.13a4.39,4.39,0,0,1-1.25,1.82,3.7,3.7,0,0,1-2.53.82,3.86,3.86,0,0,1-2.07-.53,3.76,3.76,0,0,1-1.31-1.35,7.8,7.8,0,0,1-.74-1.82C107.89,158,107.71,157.26,107.52,156.54Z" transform="translate(-2 -116.61)"/><path class="cls-4" d="M148.27,158.7a19.8,19.8,0,0,1-4.49,2.7,12.53,12.53,0,0,1-4.86.91,9.17,9.17,0,0,1-4.32-1,7.14,7.14,0,0,1-2.88-2.63,6.87,6.87,0,0,1-1-3.61,6.46,6.46,0,0,1,1.66-4.48,8.32,8.32,0,0,1,4.57-2.48c.41-.1,1.42-.31,3-.64s3-.63,4.14-.9,2.4-.6,3.74-1a6.7,6.7,0,0,0-1-3.71c-.6-.79-1.85-1.18-3.74-1.18a7.73,7.73,0,0,0-3.67.68,5.94,5.94,0,0,0-2.11,2c-.58.9-1,1.5-1.24,1.79a2,2,0,0,1-1.56.43,2.71,2.71,0,0,1-1.86-.69,2.26,2.26,0,0,1-.78-1.77,5.39,5.39,0,0,1,1.19-3.28,8.61,8.61,0,0,1,3.73-2.63,16.91,16.91,0,0,1,6.3-1,17.88,17.88,0,0,1,6.63,1,6.12,6.12,0,0,1,3.41,3.15,13.71,13.71,0,0,1,1,5.72c0,1.5,0,2.77,0,3.82s0,2.21,0,3.49a12.75,12.75,0,0,0,.6,3.76,12,12,0,0,1,.6,2.52,2.36,2.36,0,0,1-.93,1.8,3.07,3.07,0,0,1-2.09.81,2.83,2.83,0,0,1-1.95-.93A13.92,13.92,0,0,1,148.27,158.7Zm-.42-9.26a32.45,32.45,0,0,1-4.09,1.09q-2.69.57-3.72.84a5,5,0,0,0-2,1.06,2.68,2.68,0,0,0-.94,2.19,3.25,3.25,0,0,0,1.1,2.47,4.07,4.07,0,0,0,2.88,1,7.57,7.57,0,0,0,3.51-.83,5.55,5.55,0,0,0,2.35-2.15,9.74,9.74,0,0,0,.87-4.78Z" transform="translate(-2 -116.61)"/><path class="cls-4" d="M160.5,133.31a3.37,3.37,0,0,1-2.29-.82,3.18,3.18,0,0,1,0-4.56,3.27,3.27,0,0,1,2.26-.87,3.34,3.34,0,0,1,2.2.79,2.85,2.85,0,0,1,1,2.32,2.9,2.9,0,0,1-.94,2.31A3.19,3.19,0,0,1,160.5,133.31Zm3.16,6.61v18.5a4.1,4.1,0,0,1-.91,2.9,3,3,0,0,1-2.32,1,2.91,2.91,0,0,1-2.29-1,4.27,4.27,0,0,1-.88-2.88V140.11a4.13,4.13,0,0,1,.88-2.86,3,3,0,0,1,2.29-1,3.08,3.08,0,0,1,2.32,1A3.71,3.71,0,0,1,163.66,139.92Z" transform="translate(-2 -116.61)"/><path class="cls-4" d="M166.91,158.42V130.67a4.32,4.32,0,0,1,.86-2.91,2.89,2.89,0,0,1,2.3-1,3,3,0,0,1,2.35,1,4.21,4.21,0,0,1,.89,2.92v27.75a4.16,4.16,0,0,1-.9,2.91,3,3,0,0,1-2.34,1,2.9,2.9,0,0,1-2.28-1A4.22,4.22,0,0,1,166.91,158.42Z" transform="translate(-2 -116.61)"/></g><g id="connectPath"><path class="cls-5" d="M200.74,155a5.51,5.51,0,0,1-.72,2.56,8.7,8.7,0,0,1-2.18,2.59,11.14,11.14,0,0,1-3.69,2,15.6,15.6,0,0,1-5,.75q-5.94,0-9.26-3.46t-3.33-9.27a15.24,15.24,0,0,1,1.53-7,10.93,10.93,0,0,1,4.4-4.68,15,15,0,0,1,11.45-.92,12,12,0,0,1,3.52,1.87,9.05,9.05,0,0,1,2.2,2.45,4.85,4.85,0,0,1,.76,2.43,2.55,2.55,0,0,1-.85,1.94,3,3,0,0,1-2.08.8,2.1,2.1,0,0,1-1.32-.41,6.46,6.46,0,0,1-1.19-1.32,9.64,9.64,0,0,0-2.45-2.68,6,6,0,0,0-7.81,1.33,9.54,9.54,0,0,0-1.74,6.06,11.52,11.52,0,0,0,.45,3.31,7.62,7.62,0,0,0,1.29,2.58,5.52,5.52,0,0,0,2,1.62,6.12,6.12,0,0,0,2.62.55,6,6,0,0,0,3.3-.89,7.84,7.84,0,0,0,2.42-2.72,6.16,6.16,0,0,1,1.27-1.69,2.41,2.41,0,0,1,1.66-.61,2.5,2.5,0,0,1,1.95.89A2.9,2.9,0,0,1,200.74,155Z" transform="translate(-2 -116.61)"/><path class="cls-5" d="M226.91,149.94a15.22,15.22,0,0,1-.89,5.27,11.35,11.35,0,0,1-6.61,6.81,14.39,14.39,0,0,1-5.27.92,14,14,0,0,1-5.23-.93,11.56,11.56,0,0,1-4-2.69,11.7,11.7,0,0,1-2.58-4.12,16.25,16.25,0,0,1,0-10.58,11.68,11.68,0,0,1,2.56-4.13,11.3,11.3,0,0,1,4-2.64,14.4,14.4,0,0,1,5.23-.92,14.13,14.13,0,0,1,5.27.94,11.37,11.37,0,0,1,6.62,6.79A15.12,15.12,0,0,1,226.91,149.94Zm-6.42,0a9.68,9.68,0,0,0-1.72-6.1,5.62,5.62,0,0,0-4.63-2.18,5.76,5.76,0,0,0-3.31,1,6.08,6.08,0,0,0-2.2,2.87,13.06,13.06,0,0,0,0,8.81,6.24,6.24,0,0,0,2.18,2.87,5.68,5.68,0,0,0,3.34,1,5.58,5.58,0,0,0,4.63-2.2A9.61,9.61,0,0,0,220.49,149.94Z" transform="translate(-2 -116.61)"/><path class="cls-5" d="M234.4,140.47v.77a11.41,11.41,0,0,1,3.69-3.27,9.91,9.91,0,0,1,4.61-1,9.22,9.22,0,0,1,4.52,1.1,7,7,0,0,1,3,3.12,7.52,7.52,0,0,1,.82,2.53,27,27,0,0,1,.19,3.47v11.9a4.29,4.29,0,0,1-.88,2.91,2.92,2.92,0,0,1-2.29,1,3,3,0,0,1-2.32-1,4.27,4.27,0,0,1-.89-2.89V148.39a10.61,10.61,0,0,0-.88-4.84c-.58-1.12-1.75-1.68-3.5-1.68a5.2,5.2,0,0,0-3.12,1,5.89,5.89,0,0,0-2.06,2.8,20.23,20.23,0,0,0-.47,5.35v8a4.17,4.17,0,0,1-.9,2.92,3,3,0,0,1-2.33,1,2.91,2.91,0,0,1-2.28-1,4.27,4.27,0,0,1-.89-2.89V140.56a4,4,0,0,1,.8-2.73,2.76,2.76,0,0,1,2.18-.9,2.9,2.9,0,0,1,1.52.4,2.75,2.75,0,0,1,1.09,1.19A4.14,4.14,0,0,1,234.4,140.47Z" transform="translate(-2 -116.61)"/><path class="cls-5" d="M260,140.47v.77a11.34,11.34,0,0,1,3.7-3.27,9.87,9.87,0,0,1,4.6-1,9.19,9.19,0,0,1,4.52,1.1,7,7,0,0,1,3,3.12,7.3,7.3,0,0,1,.82,2.53,25.26,25.26,0,0,1,.19,3.47v11.9A4.24,4.24,0,0,1,276,162a2.92,2.92,0,0,1-2.29,1,3,3,0,0,1-2.32-1,4.27,4.27,0,0,1-.89-2.89V148.39a10.61,10.61,0,0,0-.88-4.84c-.58-1.12-1.75-1.68-3.5-1.68a5.2,5.2,0,0,0-3.12,1,6,6,0,0,0-2.06,2.8,20.23,20.23,0,0,0-.47,5.35v8a4.17,4.17,0,0,1-.9,2.92,3,3,0,0,1-2.33,1,2.92,2.92,0,0,1-2.28-1,4.27,4.27,0,0,1-.89-2.89V140.56a4,4,0,0,1,.8-2.73,2.76,2.76,0,0,1,2.18-.9,2.9,2.9,0,0,1,1.52.4,2.75,2.75,0,0,1,1.09,1.19A4.14,4.14,0,0,1,260,140.47Z" transform="translate(-2 -116.61)"/><path class="cls-5" d="M297.71,151.51H285.2a8.42,8.42,0,0,0,.88,3.84,5.86,5.86,0,0,0,5.4,3.35,7.74,7.74,0,0,0,2.1-.27,7,7,0,0,0,1.84-.84,13.75,13.75,0,0,0,1.64-1.23c.5-.44,1.15-1,1.94-1.78a2.12,2.12,0,0,1,1.41-.43,2.3,2.3,0,0,1,1.59.54,1.92,1.92,0,0,1,.61,1.53,4.16,4.16,0,0,1-.68,2,8,8,0,0,1-2.05,2.23,11.68,11.68,0,0,1-3.44,1.77,14.87,14.87,0,0,1-4.77.7q-6.17,0-9.59-3.51t-3.42-9.54a15.94,15.94,0,0,1,.84-5.26,11.46,11.46,0,0,1,2.46-4.16,10.56,10.56,0,0,1,4-2.66,14.26,14.26,0,0,1,5.25-.93,12.48,12.48,0,0,1,6.43,1.58,10.44,10.44,0,0,1,4,4.09,10.81,10.81,0,0,1,1.34,5.11c0,1.61-.46,2.65-1.39,3.13A8.56,8.56,0,0,1,297.71,151.51Zm-12.51-3.64h11.6A7.84,7.84,0,0,0,295,143a5.31,5.31,0,0,0-4-1.63,5.13,5.13,0,0,0-3.93,1.66A8.24,8.24,0,0,0,285.2,147.87Z" transform="translate(-2 -116.61)"/><path class="cls-5" d="M328,155a5.61,5.61,0,0,1-.71,2.56,9,9,0,0,1-2.18,2.59,11.34,11.34,0,0,1-3.69,2,15.71,15.71,0,0,1-5,.75q-5.92,0-9.26-3.46t-3.32-9.27a15.23,15.23,0,0,1,1.52-7,10.9,10.9,0,0,1,4.41-4.68,14.94,14.94,0,0,1,11.44-.92,11.85,11.85,0,0,1,3.52,1.87,8.89,8.89,0,0,1,2.2,2.45,4.85,4.85,0,0,1,.76,2.43,2.55,2.55,0,0,1-.85,1.94,2.93,2.93,0,0,1-2.07.8,2.11,2.11,0,0,1-1.33-.41,6.19,6.19,0,0,1-1.18-1.32,9.79,9.79,0,0,0-2.45-2.68,5.59,5.59,0,0,0-3.25-.89,5.52,5.52,0,0,0-4.57,2.22,9.6,9.6,0,0,0-1.73,6.06,11.89,11.89,0,0,0,.44,3.31,7.62,7.62,0,0,0,1.29,2.58,5.52,5.52,0,0,0,2,1.62,6.16,6.16,0,0,0,2.63.55,6,6,0,0,0,3.29-.89,7.84,7.84,0,0,0,2.42-2.72,6.59,6.59,0,0,1,1.27-1.69,2.43,2.43,0,0,1,1.66-.61,2.48,2.48,0,0,1,1.95.89A2.85,2.85,0,0,1,328,155Z" transform="translate(-2 -116.61)"/><path class="cls-5" d="M330.53,137.49h.71v-3.84c0-1,0-1.84.08-2.43a3.52,3.52,0,0,1,.45-1.51,2.92,2.92,0,0,1,1.08-1.07,3.09,3.09,0,0,1,1.57-.41,3.17,3.17,0,0,1,2.21.92,2.74,2.74,0,0,1,.83,1.49,13.24,13.24,0,0,1,.17,2.49v4.36H340a3,3,0,0,1,2.07.65,2.1,2.1,0,0,1,.72,1.65,1.84,1.84,0,0,1-1,1.8,6.55,6.55,0,0,1-2.92.52h-1.2v11.76a19,19,0,0,0,.11,2.31,2.35,2.35,0,0,0,.56,1.31,1.92,1.92,0,0,0,1.49.51,8.12,8.12,0,0,0,1.52-.2,8.15,8.15,0,0,1,1.5-.2,2,2,0,0,1,1.4.62,2.12,2.12,0,0,1,.62,1.54,2.55,2.55,0,0,1-1.69,2.36,11.33,11.33,0,0,1-4.85.82,8.41,8.41,0,0,1-4.55-1,4.72,4.72,0,0,1-2-2.79,19,19,0,0,1-.48-4.76V142.11h-.85a3,3,0,0,1-2.11-.66,2.15,2.15,0,0,1-.72-1.66,2,2,0,0,1,.76-1.65A3.33,3.33,0,0,1,330.53,137.49Z" transform="translate(-2 -116.61)"/></g><g id="MarketingPath"><path class="cls-6" d="M100.87,179h-5v-9.81h4.74V170H96.78v3.66h3.59v.79H96.78v3.78h4.09Z" transform="translate(-2 -116.61)"/><path class="cls-6" d="M111.59,179h-.84v-6.81c0-.15,0-.36,0-.64s0-.6.06-1h0a5.12,5.12,0,0,1-.18.52,3,3,0,0,1-.15.38L107,179h-.35l-3.43-7.5a2.85,2.85,0,0,1-.16-.42,4.24,4.24,0,0,1-.16-.53h0a6.77,6.77,0,0,1,0,.69c0,.26,0,.55,0,.86V179h-.84v-9.81h1l3.39,7.48a4.1,4.1,0,0,1,.21.48c.06.16.11.32.16.47h0c.07-.21.14-.39.2-.56s.12-.31.18-.44l3.38-7.43h.94Z" transform="translate(-2 -116.61)"/><path class="cls-6" d="M112.32,179l3.71-9.81h.87l3.71,9.81h-1l-1.07-2.88h-4.25l-1,2.88Zm2.3-3.67h3.66l-1.62-4.43a3.38,3.38,0,0,1-.11-.34,3.42,3.42,0,0,0-.09-.38h0a2.74,2.74,0,0,1-.1.39c0,.12-.07.22-.1.31Z" transform="translate(-2 -116.61)"/><path class="cls-6" d="M122.2,179h-.86v-9.81h.86Z" transform="translate(-2 -116.61)"/><path class="cls-6" d="M128.69,179H123.9v-9.81h.86v9h3.93Z" transform="translate(-2 -116.61)"/><path class="cls-6" d="M141.88,179H141v-6.81c0-.15,0-.36,0-.64s0-.6.06-1h0l-.18.52-.15.38L137.32,179H137l-3.43-7.5c-.05-.12-.11-.26-.16-.42s-.1-.33-.15-.53h0a6.55,6.55,0,0,1,0,.69c0,.26,0,.55,0,.86V179h-.85v-9.81h1l3.4,7.48c.07.15.14.32.2.48a3.27,3.27,0,0,1,.16.47h.05l.19-.56c.06-.16.12-.31.18-.44l3.39-7.43h.94Z" transform="translate(-2 -116.61)"/><path class="cls-6" d="M142.6,179l3.72-9.81h.87l3.7,9.81h-1l-1.06-2.88H144.6l-1,2.88Zm2.3-3.67h3.67l-1.63-4.43a3.37,3.37,0,0,1-.1-.34c0-.12-.06-.24-.1-.38h0l-.1.39-.1.31Z" transform="translate(-2 -116.61)"/><path class="cls-6" d="M157.94,179h-1l-1.46-2.84a3.15,3.15,0,0,0-.84-1.12,1.51,1.51,0,0,0-1-.27h-1.19V179h-.86v-9.81h2.74a3.11,3.11,0,0,1,2.07.68,2.36,2.36,0,0,1,.81,1.92,2.77,2.77,0,0,1-.56,1.74,2.84,2.84,0,0,1-1.59,1v0a1.85,1.85,0,0,1,.6.44,4.28,4.28,0,0,1,.56.82Zm-5.46-9v4h1.64a2.29,2.29,0,0,0,1.61-.58,2,2,0,0,0,.61-1.54,1.75,1.75,0,0,0-.55-1.38,2.21,2.21,0,0,0-1.57-.5Z" transform="translate(-2 -116.61)"/><path class="cls-6" d="M165.11,179H163.9l-4-4.61-.13-.16-.08-.11h0V179h-.86v-9.81h.86v4.62h0a1.3,1.3,0,0,1,.1-.15l.11-.13,3.86-4.34h1.09l-4.26,4.73Z" transform="translate(-2 -116.61)"/><path class="cls-6" d="M170.57,179h-4.95v-9.81h4.73V170h-3.87v3.66h3.59v.79h-3.59v3.78h4.09Z" transform="translate(-2 -116.61)"/><path class="cls-6" d="M177.41,170h-2.83v9h-.86v-9h-2.83v-.79h6.52Z" transform="translate(-2 -116.61)"/><path class="cls-6" d="M179.05,179h-.86v-9.81h.86Z" transform="translate(-2 -116.61)"/><path class="cls-6" d="M188.35,179h-.85L182,171.12a1.67,1.67,0,0,1-.18-.28c-.06-.1-.13-.21-.2-.34h0a2.45,2.45,0,0,1,0,.32c0,.13,0,.29,0,.48V179h-.86v-9.81h.91l5.43,7.79c.09.12.16.23.23.34a3.4,3.4,0,0,1,.18.3h0c0-.15,0-.31,0-.49s0-.37,0-.57v-7.37h.87Z" transform="translate(-2 -116.61)"/><path class="cls-6" d="M197.24,178.32a7,7,0,0,1-1.56.64,6.32,6.32,0,0,1-1.62.21,4.34,4.34,0,0,1-3.33-1.34,5.07,5.07,0,0,1-1.25-3.6,5.29,5.29,0,0,1,1.36-3.74,4.68,4.68,0,0,1,3.61-1.46,5.77,5.77,0,0,1,1.42.16,5.51,5.51,0,0,1,1.3.5l-.36.71a4.81,4.81,0,0,0-1.14-.45,5.3,5.3,0,0,0-1.24-.13,3.84,3.84,0,0,0-2.94,1.18,5.19,5.19,0,0,0-.09,6.27,3.56,3.56,0,0,0,2.78,1.11,4.87,4.87,0,0,0,1.17-.14,4.11,4.11,0,0,0,1-.41v-3h-2.25V174h3.12Z" transform="translate(-2 -116.61)"/></g></svg>